<?xml version="1.0" encoding="UTF-8" standalone="no"?>
<svg
   xmlns:dc="http://purl.org/dc/elements/1.1/"
   xmlns:cc="http://creativecommons.org/ns#"
   xmlns:rdf="http://www.w3.org/1999/02/22-rdf-syntax-ns#"
   xmlns:svg="http://www.w3.org/2000/svg"
   xmlns="http://www.w3.org/2000/svg"
   xmlns:sodipodi="http://sodipodi.sourceforge.net/DTD/sodipodi-0.dtd"
   xmlns:inkscape="http://www.inkscape.org/namespaces/inkscape"
   height="22px"
   version="1.1"
   viewBox="0 0 22 22"
   width="22px"
   id="svg2"
   inkscape:version="0.48.4 r9939"
   sodipodi:docname="back.svg">
  <metadata
     id="metadata12">
    <rdf:RDF>
      <cc:Work
         rdf:about="">
        <dc:format>image/svg+xml</dc:format>
        <dc:type
           rdf:resource="http://purl.org/dc/dcmitype/StillImage" />
      </cc:Work>
    </rdf:RDF>
  </metadata>
  <sodipodi:namedview
     pagecolor="#ffffff"
     bordercolor="#666666"
     borderopacity="1"
     objecttolerance="10"
     gridtolerance="10"
     guidetolerance="10"
     inkscape:pageopacity="0"
     inkscape:pageshadow="2"
     inkscape:window-width="1080"
     inkscape:window-height="1007"
     id="namedview10"
     showgrid="false"
     inkscape:zoom="10.727273"
     inkscape:cx="3.0762712"
     inkscape:cy="11"
     inkscape:window-x="1648"
     inkscape:window-y="420"
     inkscape:window-maximized="0"
     inkscape:current-layer="svg2" />
  <title
     id="title4" />
  <defs
     id="defs6" />
  <g
     id="miu"
     transform="matrix(-1,0,0,-1,22,22)"
     style="fill:#ffffff;stroke:none">
    <path
       d="M 0,11 C 0,4.9248674 4.9248674,0 11,0 17.075132,0 22,4.9248674 22,11 22,17.075132 17.075132,22 11,22 4.9248674,22 0,17.075132 0,11 z m 21,0 C 21,5.4771522 16.522848,1 11,1 5.4771522,1 1,5.4771522 1,11 1,16.522848 5.4771522,21 11,21 16.522848,21 21,16.522848 21,11 z M 12.145436,11.420562 8.2563483,15.309649 9.6767767,16.730078 14.980078,11.426777 9.3232233,5.7699224 7.9090097,7.184136 12.145436,11.420562 z"
       id="circle_next_arrow_disclosure_outline_stroke"
       inkscape:connector-curvature="0"
       style="fill:#ffffff" />
  </g>
</svg>
