<?xml version="1.0" encoding="UTF-8" standalone="no"?>
<svg
   xmlns:dc="http://purl.org/dc/elements/1.1/"
   xmlns:cc="http://creativecommons.org/ns#"
   xmlns:rdf="http://www.w3.org/1999/02/22-rdf-syntax-ns#"
   xmlns:svg="http://www.w3.org/2000/svg"
   xmlns="http://www.w3.org/2000/svg"
   xmlns:sodipodi="http://sodipodi.sourceforge.net/DTD/sodipodi-0.dtd"
   xmlns:inkscape="http://www.inkscape.org/namespaces/inkscape"
   id="svg2"
   width="22px"
   viewBox="0 0 22 22"
   version="1.1"
   height="22px"
   inkscape:version="0.92.1 r"
   sodipodi:docname="note.svg">
  <sodipodi:namedview
     pagecolor="#ffffff"
     bordercolor="#666666"
     borderopacity="1"
     objecttolerance="10"
     gridtolerance="10"
     guidetolerance="10"
     inkscape:pageopacity="1"
     inkscape:pageshadow="2"
     inkscape:window-width="1680"
     inkscape:window-height="1050"
     id="namedview9"
     showgrid="false"
     inkscape:zoom="15.170655"
     inkscape:cx="-11.239799"
     inkscape:cy="14.985513"
     inkscape:window-x="2736"
     inkscape:window-y="400"
     inkscape:window-maximized="0"
     inkscape:current-layer="text8419" />
  <metadata
     id="metadata12">
    <rdf:RDF>
      <cc:Work
         rdf:about="">
        <dc:format>image/svg+xml</dc:format>
        <dc:type
           rdf:resource="http://purl.org/dc/dcmitype/StillImage" />
        <dc:title />
      </cc:Work>
    </rdf:RDF>
  </metadata>
  <defs
     id="defs6" />
  <g
     style="fill:#ffffff;stroke:none"
     transform="matrix(-1,0,0,-1,22,22)"
     id="miu">
    <path
       style="fill:#ffffff"
       id="circle_next_arrow_disclosure_outline_stroke"
       d="M 0,11 C 0,4.9248674 4.9248674,0 11,0 17.075132,0 22,4.9248674 22,11 22,17.075132 17.075132,22 11,22 4.9248674,22 0,17.075132 0,11 Z m 21,0 C 21,5.4771522 16.522848,1 11,1 5.4771522,1 1,5.4771522 1,11 c 0,5.522848 4.4771522,10 10,10 5.522848,0 10,-4.477152 10,-10 z" />
  </g>
  <g
     style="font-style:normal;font-weight:normal;font-size:40px;line-height:125%;font-family:sans-serif;letter-spacing:0px;word-spacing:0px;fill:#000000;fill-opacity:1;stroke:none;stroke-width:1px;stroke-linecap:butt;stroke-linejoin:miter;stroke-opacity:1"
     id="text8067"
     transform="translate(0.12047754,0.01631655)">
    <g
       aria-label=""
       style="font-style:normal;font-variant:normal;font-weight:normal;font-stretch:normal;font-size:32px;line-height:25px;font-family:'CMU Typewriter Text';-inkscape-font-specification:'CMU Typewriter Text';letter-spacing:0px;word-spacing:0px;fill:#000000;fill-opacity:1;stroke:none;stroke-width:1px;stroke-linecap:butt;stroke-linejoin:miter;stroke-opacity:1"
       id="text8419">
      <path
         d="m 13.450951,12.912255 v 0.428571 q 0,0.09375 -0.06027,0.154018 -0.06027,0.06027 -0.154018,0.06027 H 8.5223796 q -0.09375,0 -0.1540179,-0.06027 -0.060268,-0.06027 -0.060268,-0.154018 v -0.428571 q 0,-0.09375 0.060268,-0.154018 0.060268,-0.06027 0.1540179,-0.06027 h 4.7142854 q 0.09375,0 0.154018,0.06027 0.06027,0.06027 0.06027,0.154018 z m 0,-1.714286 v 0.428572 q 0,0.09375 -0.06027,0.154017 -0.06027,0.06027 -0.154018,0.06027 H 8.5223796 q -0.09375,0 -0.1540179,-0.06027 -0.060268,-0.06027 -0.060268,-0.154017 v -0.428572 q 0,-0.09375 0.060268,-0.154018 0.060268,-0.06027 0.1540179,-0.06027 h 4.7142854 q 0.09375,0 0.154018,0.06027 0.06027,0.06027 0.06027,0.154018 z m -6,4.071429 h 6.857143 V 10.126541 H 11.52238 q -0.267858,0 -0.455358,-0.1875004 -0.1875,-0.1875 -0.1875,-0.4553572 V 6.6979692 H 7.450951 Z m 4.285714,-6.0000003 h 2.517857 Q 14.187558,9.0752013 14.107201,8.9948442 L 12.011219,6.898862 q -0.08036,-0.080357 -0.274554,-0.1473214 z m 3.428572,0.2142857 v 5.9999996 q 0,0.267858 -0.1875,0.455358 -0.1875,0.1875 -0.455357,0.1875 H 7.2366653 q -0.2678571,0 -0.4553571,-0.1875 -0.1875,-0.1875 -0.1875,-0.455358 V 6.4836834 q 0,-0.2678571 0.1875,-0.4553571 0.1875,-0.1875 0.4553571,-0.1875 H 11.52238 q 0.267857,0 0.589285,0.1339286 0.321429,0.1339285 0.508929,0.3214285 l 2.089286,2.0892858 q 0.1875,0.1875 0.321428,0.5089285 0.133929,0.3214286 0.133929,0.5892857 z"
         style="font-size:12px;fill:#ffffff"
         id="path8418" />
    </g>
  </g>
</svg>
